<?xml version="1.0" standalone="no"?>
<!DOCTYPE svg PUBLIC "-//W3C//DTD SVG 20010904//EN"
 "http://www.w3.org/TR/2001/REC-SVG-20010904/DTD/svg10.dtd">
<svg version="1.0" xmlns="http://www.w3.org/2000/svg"
 width="1024.000000pt" height="1024.000000pt" viewBox="0 0 1024.000000 1024.000000"
 preserveAspectRatio="xMidYMid meet">
<metadata>
Created by potrace 1.14, written by Peter Selinger 2001-2017
</metadata>
<g transform="translate(0.000000,1024.000000) scale(0.100000,-0.100000)"
fill="#000000" stroke="none">
<path d="M0 5120 l0 -5120 5120 0 5120 0 0 5120 0 5120 -5120 0 -5120 0 0
-5120z m5495 3120 c756 -89 1443 -429 1925 -953 281 -304 502 -654 653 -1032
155 -387 218 -715 219 -1140 1 -320 -36 -569 -128 -875 -59 -199 -105 -311
-204 -509 -81 -163 -101 -197 -223 -381 -195 -293 -491 -596 -777 -792 -230
-158 -516 -304 -770 -392 -469 -163 -851 -210 -1355 -165 -515 45 -1053 235
-1491 525 -236 156 -529 425 -707 649 -229 288 -427 654 -536 988 -185 568
-205 1135 -60 1695 72 279 204 615 314 797 19 32 35 63 35 67 0 15 180 279
244 358 340 422 699 700 1169 904 310 135 602 214 952 255 50 6 101 13 115 15
45 8 533 -3 625 -14z"/>
<path d="M4950 7879 c-564 -40 -1119 -241 -1535 -554 -311 -234 -542 -504
-747 -870 -172 -306 -272 -600 -330 -965 -30 -190 -33 -590 -5 -763 64 -403
214 -779 452 -1137 281 -421 604 -708 1056 -938 238 -121 371 -169 649 -236
296 -71 511 -92 782 -76 356 20 660 93 990 236 332 145 668 380 892 623 328
359 582 806 691 1221 64 245 85 421 85 697 0 294 -24 464 -106 751 -44 155
-72 226 -161 413 -239 499 -547 859 -988 1154 -300 200 -749 371 -1105 419
-257 35 -399 41 -620 25z m-12 -426 c-10 -2 -28 -2 -40 0 -13 2 -5 4 17 4 22
1 32 -1 23 -4z m359 1 c-3 -3 -12 -4 -19 -1 -8 3 -5 6 6 6 11 1 17 -2 13 -5z
m46 -1 c-7 -2 -19 -2 -25 0 -7 3 -2 5 12 5 14 0 19 -2 13 -5z m-485 -10 c-10
-2 -26 -2 -35 0 -10 3 -2 5 17 5 19 0 27 -2 18 -5z m-61 -9 c-3 -3 -12 -4 -19
-1 -8 3 -5 6 6 6 11 1 17 -2 13 -5z m796 -23 c146 -39 167 -47 145 -56 -22 -9
-54 -2 -51 11 1 6 -17 10 -40 9 -23 -1 -55 6 -72 15 -16 9 -36 15 -44 12 -7
-2 -16 0 -20 5 -3 6 -19 15 -36 21 -60 21 8 11 118 -17z m-873 5 c-38 -14
-128 -30 -119 -22 7 7 118 34 139 34 8 1 -1 -5 -20 -12z m-150 -36 c-34 -11
-60 -11 -35 0 11 5 29 8 40 8 16 0 15 -2 -5 -8z m-93 -26 c-3 -3 -12 -4 -19
-1 -8 3 -5 6 6 6 11 1 17 -2 13 -5z m1318 -12 c-3 -3 -11 0 -18 7 -9 10 -8 11
6 5 10 -3 15 -9 12 -12z m-1425 -16 c0 -2 -7 -7 -16 -10 -8 -3 -12 -2 -9 4 6
10 25 14 25 6z m-50 -20 c0 -2 -42 -24 -92 -49 -51 -26 -109 -56 -128 -68 -34
-21 -35 -21 -10 0 14 11 68 43 120 71 89 46 110 55 110 46z m880 -45 c0 -10
-9 -21 -20 -24 -11 -3 -20 -14 -20 -24 0 -16 6 -18 35 -15 19 2 35 0 35 -6 0
-5 20 -13 44 -16 24 -4 47 -13 49 -21 7 -17 -15 -26 -34 -14 -8 5 -21 8 -29 8
-10 0 -9 -3 4 -8 10 -4 -71 -12 -180 -19 -237 -14 -293 -23 -441 -67 -62 -18
-111 -30 -108 -25 2 4 26 13 52 20 59 16 80 32 27 20 -24 -6 -43 -5 -48 0 -7
7 -2 10 12 10 12 0 21 3 21 8 -3 18 2 32 11 32 6 0 10 -7 10 -17 0 -9 3 -14 6
-10 4 3 4 12 2 19 -3 7 -6 17 -6 22 0 5 -6 13 -14 17 -8 6 -1 9 22 9 l35 1
-24 19 -23 20 30 0 c17 0 34 -4 37 -10 10 -16 35 -12 35 6 0 10 -6 14 -15 11
-8 -4 -17 -2 -20 3 -3 5 11 9 32 9 74 -2 138 4 168 16 17 7 36 10 43 8 6 -3
12 0 12 6 0 7 32 11 90 11 53 0 90 4 90 10 0 6 18 10 40 10 33 0 40 -4 40 -19z
m-325 -11 c4 -6 -7 -10 -25 -10 -18 0 -29 4 -25 10 3 6 15 10 25 10 10 0 22
-4 25 -10z m1175 -22 c0 -10 -36 7 -45 22 -4 6 5 5 19 -2 14 -6 26 -15 26 -20z
m81 -35 c13 -16 12 -17 -3 -4 -10 7 -18 15 -18 17 0 8 8 3 21 -13z m-2091 -37
c0 -3 -15 -14 -32 -26 l-33 -22 30 26 c31 27 35 29 35 22z m540 -51 c0 -8 -4
-15 -10 -15 -5 0 -7 7 -4 15 4 8 8 15 10 15 2 0 4 -7 4 -15z m1685 5 c3 -5 1
-10 -4 -10 -6 0 -11 5 -11 10 0 6 2 10 4 10 3 0 8 -4 11 -10z m44 -35 c11 6
91 -69 91 -86 0 -8 -10 -25 -21 -39 -11 -14 -18 -19 -14 -12 4 7 1 19 -5 27
-7 8 -10 15 -6 15 3 0 -3 9 -15 21 -11 11 -18 27 -15 35 3 8 2 12 -4 9 -9 -5
-31 26 -29 42 0 4 3 2 6 -5 2 -6 8 -10 12 -7z m-671 -12 c23 -3 42 -9 42 -14
0 -5 14 -9 30 -9 17 0 30 -4 30 -10 0 -5 5 -10 11 -10 5 0 8 4 5 9 -7 10 20 9
30 -2 12 -12 26 -8 19 6 -4 6 0 4 8 -5 8 -10 16 -16 18 -14 2 3 5 -6 5 -19 l2
-24 -52 21 c-28 11 -76 29 -106 39 -110 36 -144 49 -115 43 17 -3 49 -8 73
-11z m-1121 -29 c-3 -3 -12 -4 -19 -1 -8 3 -5 6 6 6 11 1 17 -2 13 -5z m-57
-44 c-20 -13 -33 -13 -25 0 3 6 14 10 23 10 15 0 15 -2 2 -10z m-42 -15 c-2
-1 -24 -12 -50 -23 -33 -14 -50 -17 -54 -10 -4 6 -3 8 3 5 6 -4 19 0 29 8 10
8 27 15 37 15 9 0 17 5 17 11 0 5 5 7 11 4 6 -4 9 -8 7 -10z m1482 -19 c0 -3
-4 -8 -10 -11 -5 -3 -10 -1 -10 4 0 6 5 11 10 11 6 0 10 -2 10 -4z m-1710
-100 c0 -3 -4 -8 -10 -11 -5 -3 -10 -1 -10 4 0 6 5 11 10 11 6 0 10 -2 10 -4z
m-40 -31 c-7 -8 -18 -15 -24 -15 -6 0 -2 7 8 15 25 19 32 19 16 0z m-63 -41
c-3 -3 -12 -4 -19 -1 -8 3 -5 6 6 6 11 1 17 -2 13 -5z m-729 -271 c29 -15 60
-36 68 -47 12 -17 14 -165 14 -941 0 -1018 -4 -959 65 -1095 70 -138 180 -235
325 -286 135 -47 303 -35 449 31 66 31 188 151 224 220 58 115 71 185 71 382
1 101 4 183 7 183 3 0 16 -11 28 -24 43 -46 116 -68 239 -74 l112 -5 0 -107
c0 -255 -42 -442 -136 -600 -123 -207 -262 -323 -487 -407 -343 -127 -696 -52
-970 207 -157 148 -271 381 -282 580 -3 41 -7 489 -10 994 l-4 920 35 43 c19
24 49 47 67 53 49 14 125 4 185 -27z m1483 8 c24 -17 58 -43 76 -58 l31 -28 4
-360 3 -360 -130 -5 c-133 -6 -157 -12 -227 -62 l-28 -19 0 299 c0 164 -3 346
-6 404 l-7 104 34 39 c51 58 85 75 150 75 45 0 64 -6 100 -29z m765 -28 l64
-57 -2 -363 -3 -363 -190 -2 -190 -3 2 350 c0 193 2 360 2 372 1 26 45 79 86
104 21 14 49 19 98 19 l68 0 65 -57z m1408 47 c14 -5 48 -31 76 -58 l50 -48 0
-369 0 -368 -107 6 c-58 4 -144 7 -190 7 l-83 0 0 359 c0 223 4 369 10 388 10
27 53 68 90 85 23 10 125 9 154 -2z m-612 -1073 c427 -1 778 -4 781 -7 2 -3 7
-85 9 -182 l5 -177 -1198 -1 c-1191 -1 -1199 0 -1239 20 -46 24 -107 100 -116
148 -11 56 4 104 47 144 68 64 84 66 534 62 220 -3 750 -6 1177 -7z m-731
-774 c3 -574 -3 -898 -17 -924 -19 -39 -87 -89 -128 -96 -71 -11 -122 5 -176
55 l-51 47 -6 542 -6 543 184 3 c101 1 187 3 192 5 4 1 7 -78 8 -175z m1467
-376 c-3 -607 1 -571 -76 -622 -78 -52 -179 -42 -253 24 l-44 39 -3 428 c-2
236 0 484 3 552 l7 122 185 0 185 0 -4 -543z m-899 -937 c15 -10 50 -45 77
-77 27 -32 42 -53 34 -47 -8 6 -22 12 -30 13 -8 0 -46 6 -85 12 -38 6 -85 10
-103 10 -18 0 -31 3 -28 8 8 12 -43 4 -60 -10 -8 -6 -17 -10 -20 -7 -6 7 100
86 139 103 42 19 44 18 76 -5z m-1969 -75 c119 -66 224 -116 345 -167 73 -30
74 -30 -35 -13 -21 3 -99 29 -160 52 -8 4 -17 7 -20 8 -3 1 -12 5 -20 8 -8 3
-29 8 -46 10 -17 3 -41 10 -52 16 -11 6 -28 8 -36 5 -9 -4 -18 0 -22 9 -3 8
-17 18 -31 22 -13 3 -34 14 -45 25 -13 12 -32 18 -49 16 -16 -2 -47 0 -69 4
-21 4 -41 3 -44 -2 -2 -5 -3 -3 -2 4 2 8 15 12 32 11 23 -2 25 -1 10 5 -18 8
-16 11 18 35 53 35 87 28 226 -48z m2110 -85 c6 -11 8 -20 6 -20 -3 0 -10 9
-16 20 -6 11 -8 20 -6 20 3 0 10 -9 16 -20z m10 -42 c0 -4 -5 -8 -11 -8 -5 0
-8 -4 -5 -9 3 -5 -1 -12 -9 -15 -12 -4 -13 -2 -6 13 6 10 8 20 6 23 -3 3 2 5
10 5 8 0 15 -4 15 -9z m-635 -33 c-27 -13 -54 -24 -60 -24 -5 1 13 11 40 24
28 13 55 24 60 24 6 -1 -12 -11 -40 -24z m-135 -55 c-8 -5 -22 -9 -30 -9 -10
0 -8 3 5 9 27 12 43 12 25 0z m-63 -16 c-3 -3 -12 -4 -19 -1 -8 3 -5 6 6 6 11
1 17 -2 13 -5z"/>
<path d="M4738 7103 c7 -3 16 -2 19 1 4 3 -2 6 -13 5 -11 0 -14 -3 -6 -6z"/>
<path d="M4660 7080 c0 -5 5 -10 11 -10 5 0 7 5 4 10 -3 6 -8 10 -11 10 -2 0
-4 -4 -4 -10z"/>
<path d="M5805 7000 c3 -5 8 -10 11 -10 2 0 4 5 4 10 0 6 -5 10 -11 10 -5 0
-7 -4 -4 -10z"/>
</g>
</svg>
