<svg id="Ebene_2" data-name="Ebene 2" xmlns="http://www.w3.org/2000/svg" xmlns:xlink="http://www.w3.org/1999/xlink" viewBox="0 0 340.16 170.08"><defs><style>.cls-1{fill:#382e66;}.cls-2{fill:url(#Unbenannter_Verlauf_491);}.cls-3{fill:url(#Unbenannter_Verlauf_491-21);}</style><radialGradient id="Unbenannter_Verlauf_491" cx="134.71" cy="71.36" r="75.26" gradientUnits="userSpaceOnUse"><stop offset="0" stop-color="#ffec00"/><stop offset="0.46" stop-color="#eb4b3c"/><stop offset="1" stop-color="#5a1edc"/></radialGradient><radialGradient id="Unbenannter_Verlauf_491-21" cx="134.71" cy="71.16" r="75.26" xlink:href="#Unbenannter_Verlauf_491"/></defs><path class="cls-1" d="M142.44,115.9H139v-1.65h8.91v1.65h-3.48v8.85h-1.95Z"/><path class="cls-1" d="M156.13,117.53a3.5,3.5,0,0,1,.92,2.63v4.59h-1.88V120.4a2.28,2.28,0,0,0-.49-1.59,1.85,1.85,0,0,0-1.41-.53,2.19,2.19,0,0,0-1.64.62,2.51,2.51,0,0,0-.6,1.8v4h-1.87V113.62H151v4a3,3,0,0,1,1.15-.76,4.08,4.08,0,0,1,1.52-.26A3.34,3.34,0,0,1,156.13,117.53Z"/><path class="cls-1" d="M166.93,121.34h-6.28a2.14,2.14,0,0,0,.86,1.4,2.78,2.78,0,0,0,1.73.52,2.93,2.93,0,0,0,2.18-.87l1,1.16a3.36,3.36,0,0,1-1.36,1,5.45,5.45,0,0,1-4.19-.19,3.73,3.73,0,0,1-1.55-1.47,4.06,4.06,0,0,1-.55-2.12,4.26,4.26,0,0,1,.53-2.11,3.84,3.84,0,0,1,1.48-1.46,4.31,4.31,0,0,1,2.13-.52,4.23,4.23,0,0,1,2.09.51,3.61,3.61,0,0,1,1.44,1.46,4.36,4.36,0,0,1,.52,2.17C167,120.92,167,121.1,166.93,121.34Zm-5.54-2.66a2.21,2.21,0,0,0-.76,1.42h4.55a2.34,2.34,0,0,0-3.79-1.42Z"/><path class="cls-1" d="M178,117.49a3.27,3.27,0,0,1,.94,2.56v4.7h-1.77v-1a2.16,2.16,0,0,1-1,.8,3.78,3.78,0,0,1-1.54.28,3.67,3.67,0,0,1-1.57-.31,2.48,2.48,0,0,1-1-.85,2.22,2.22,0,0,1-.36-1.24,2.09,2.09,0,0,1,.8-1.73,4,4,0,0,1,2.53-.65h2.07V120a1.63,1.63,0,0,0-.51-1.29,2.16,2.16,0,0,0-1.49-.45,4.35,4.35,0,0,0-1.33.21,3.29,3.29,0,0,0-1.1.58l-.73-1.36a4.53,4.53,0,0,1,1.51-.74,6.78,6.78,0,0,1,1.88-.25A3.9,3.9,0,0,1,178,117.49Zm-1.71,5.67a1.72,1.72,0,0,0,.78-.92v-.93h-1.94c-1.08,0-1.62.36-1.62,1.07a1,1,0,0,0,.41.81,1.84,1.84,0,0,0,1.12.3A2.36,2.36,0,0,0,176.28,123.16Z"/><path class="cls-1" d="M187.71,117.16a3.65,3.65,0,0,1,1.45,1.44,4.61,4.61,0,0,1,0,4.29,3.61,3.61,0,0,1-1.45,1.45,4.23,4.23,0,0,1-2.09.51,3.9,3.9,0,0,1-1.51-.28,2.92,2.92,0,0,1-1.14-.86v1h-1.79V113.62h1.88v4.09a3.08,3.08,0,0,1,1.13-.79,3.68,3.68,0,0,1,1.43-.27A4.23,4.23,0,0,1,187.71,117.16Zm-.6,5.4a2.79,2.79,0,0,0,0-3.63,2.25,2.25,0,0,0-1.7-.69,2.44,2.44,0,0,0-1.21.3,2.27,2.27,0,0,0-.86.88,3,3,0,0,0,0,2.64,2.27,2.27,0,0,0,.86.88,2.45,2.45,0,0,0,1.21.31A2.25,2.25,0,0,0,187.11,122.56Z"/><path class="cls-1" d="M194.8,115.09a1.11,1.11,0,0,1,0-1.6,1.19,1.19,0,0,1,.86-.32,1.24,1.24,0,0,1,.85.3,1,1,0,0,1,.35.78,1.16,1.16,0,0,1-.34.83,1.27,1.27,0,0,1-1.72,0Zm-.09,1.65h1.88v8h-1.88Z"/><path class="cls-1" d="M205.87,117.53a3.5,3.5,0,0,1,.92,2.63v4.59h-1.88V120.4a2.28,2.28,0,0,0-.49-1.59,1.85,1.85,0,0,0-1.41-.53,2.19,2.19,0,0,0-1.64.62,2.51,2.51,0,0,0-.6,1.8v4H198.9v-8h1.78v1a2.93,2.93,0,0,1,1.17-.84,4.21,4.21,0,0,1,1.59-.28A3.34,3.34,0,0,1,205.87,117.53Z"/><path class="cls-1" d="M209,115.09a1.11,1.11,0,0,1,0-1.6,1.19,1.19,0,0,1,.86-.32,1.24,1.24,0,0,1,.85.3,1,1,0,0,1,.35.78,1.16,1.16,0,0,1-.34.83,1.27,1.27,0,0,1-1.72,0Zm-.09,1.65h1.88v8h-1.88Z"/><path class="cls-1" d="M218.32,124.31a2.24,2.24,0,0,1-.8.41,3.66,3.66,0,0,1-1,.13,2.83,2.83,0,0,1-2-.69,2.66,2.66,0,0,1-.72-2V118.3h-1.32v-1.5h1.32V115h1.88v1.83h2.14v1.5h-2.14v3.81a1.27,1.27,0,0,0,.28.89,1.1,1.1,0,0,0,.83.31,1.65,1.65,0,0,0,1.05-.33Z"/><path class="cls-1" d="M220,115.09a1.09,1.09,0,0,1,0-1.6,1.17,1.17,0,0,1,.85-.32,1.27,1.27,0,0,1,.86.3,1,1,0,0,1,.34.78,1.12,1.12,0,0,1-.34.83,1.26,1.26,0,0,1-1.71,0Zm-.09,1.65h1.87v8h-1.87Z"/><path class="cls-1" d="M225.46,124.33a3.77,3.77,0,0,1-1.52-1.47,4.34,4.34,0,0,1,0-4.23,3.82,3.82,0,0,1,1.52-1.46,4.54,4.54,0,0,1,2.19-.52,4.62,4.62,0,0,1,2.21.52,3.88,3.88,0,0,1,1.52,1.46,4.34,4.34,0,0,1,0,4.23,3.84,3.84,0,0,1-1.52,1.47,4.62,4.62,0,0,1-2.21.52A4.54,4.54,0,0,1,225.46,124.33Zm3.9-1.77a2.76,2.76,0,0,0,0-3.63,2.29,2.29,0,0,0-1.71-.69,2.25,2.25,0,0,0-1.7.69,2.79,2.79,0,0,0,0,3.63,2.25,2.25,0,0,0,1.7.69A2.29,2.29,0,0,0,229.36,122.56Z"/><path class="cls-1" d="M249.47,117.52a3.59,3.59,0,0,1,.89,2.64v4.59h-1.88V120.4a2.38,2.38,0,0,0-.46-1.59,1.7,1.7,0,0,0-1.34-.53,2,2,0,0,0-1.51.62,2.55,2.55,0,0,0-.57,1.78v4.07h-1.88V120.4a2.38,2.38,0,0,0-.46-1.59,1.7,1.7,0,0,0-1.34-.53,2,2,0,0,0-1.52.62,2.57,2.57,0,0,0-.56,1.78v4.07H237v-8h1.79v1a2.91,2.91,0,0,1,1.12-.83,3.82,3.82,0,0,1,1.5-.28,3.69,3.69,0,0,1,1.6.33,2.6,2.6,0,0,1,1.1,1,3.3,3.3,0,0,1,1.28-1,4,4,0,0,1,1.72-.35A3.27,3.27,0,0,1,249.47,117.52Z"/><path class="cls-1" d="M258.15,117.49a3.27,3.27,0,0,1,.94,2.56v4.7h-1.77v-1a2.16,2.16,0,0,1-1,.8,3.78,3.78,0,0,1-1.54.28,3.71,3.71,0,0,1-1.58-.31,2.45,2.45,0,0,1-1-.85,2.23,2.23,0,0,1-.37-1.24,2.1,2.1,0,0,1,.81-1.73,3.92,3.92,0,0,1,2.52-.65h2.07V120a1.62,1.62,0,0,0-.5-1.29,2.16,2.16,0,0,0-1.49-.45,4.35,4.35,0,0,0-1.33.21,3.29,3.29,0,0,0-1.1.58l-.74-1.36a4.58,4.58,0,0,1,1.52-.74,6.7,6.7,0,0,1,1.87-.25A3.93,3.93,0,0,1,258.15,117.49Zm-1.71,5.67a1.71,1.71,0,0,0,.77-.92v-.93h-1.93c-1.08,0-1.62.36-1.62,1.07a1,1,0,0,0,.4.81,1.87,1.87,0,0,0,1.13.3A2.36,2.36,0,0,0,256.44,123.16Z"/><path class="cls-1" d="M266.15,124.31a2.16,2.16,0,0,1-.8.41,3.61,3.61,0,0,1-1,.13,2.83,2.83,0,0,1-2-.69,2.66,2.66,0,0,1-.72-2V118.3h-1.32v-1.5h1.32V115h1.88v1.83h2.14v1.5h-2.14v3.81a1.27,1.27,0,0,0,.28.89,1.1,1.1,0,0,0,.83.31,1.65,1.65,0,0,0,1.05-.33Z"/><path class="cls-1" d="M274.78,121.34h-6.29a2.15,2.15,0,0,0,.87,1.4,2.78,2.78,0,0,0,1.73.52,2.91,2.91,0,0,0,2.17-.87l1,1.16a3.39,3.39,0,0,1-1.37,1,5.42,5.42,0,0,1-4.18-.19,3.73,3.73,0,0,1-1.55-1.47,4.06,4.06,0,0,1-.55-2.12,4.26,4.26,0,0,1,.53-2.11,3.84,3.84,0,0,1,1.48-1.46,4.31,4.31,0,0,1,2.13-.52,4.23,4.23,0,0,1,2.09.51,3.61,3.61,0,0,1,1.44,1.46,4.36,4.36,0,0,1,.52,2.17C274.81,120.92,274.8,121.1,274.78,121.34Zm-5.54-2.66a2.21,2.21,0,0,0-.76,1.42H273a2.2,2.2,0,0,0-.73-1.41,2.44,2.44,0,0,0-3.05,0Z"/><path class="cls-1" d="M281,116.65v1.78a2.39,2.39,0,0,0-.44,0,2.28,2.28,0,0,0-1.71.63,2.56,2.56,0,0,0-.61,1.84v3.89h-1.88v-8h1.79v1.17A3.12,3.12,0,0,1,281,116.65Z"/><path class="cls-1" d="M282.77,115.09a1.11,1.11,0,0,1,0-1.6,1.19,1.19,0,0,1,.86-.32,1.24,1.24,0,0,1,.85.3,1,1,0,0,1,.35.78,1.12,1.12,0,0,1-.34.83,1.18,1.18,0,0,1-.86.34A1.2,1.2,0,0,1,282.77,115.09Zm-.09,1.65h1.88v8h-1.88Z"/><path class="cls-1" d="M292.64,117.49a3.3,3.3,0,0,1,.93,2.56v4.7H291.8v-1a2.11,2.11,0,0,1-1,.8,3.75,3.75,0,0,1-1.54.28,3.67,3.67,0,0,1-1.57-.31,2.39,2.39,0,0,1-1-.85,2.15,2.15,0,0,1-.37-1.24,2.12,2.12,0,0,1,.8-1.73,4,4,0,0,1,2.53-.65h2.07V120a1.66,1.66,0,0,0-.5-1.29,2.2,2.2,0,0,0-1.5-.45,4.24,4.24,0,0,0-1.32.21,3.25,3.25,0,0,0-1.11.58l-.73-1.36a4.53,4.53,0,0,1,1.51-.74,6.78,6.78,0,0,1,1.88-.25A3.94,3.94,0,0,1,292.64,117.49Zm-1.71,5.67a1.75,1.75,0,0,0,.77-.92v-.93h-1.94c-1.08,0-1.62.36-1.62,1.07a1,1,0,0,0,.41.81,1.84,1.84,0,0,0,1.12.3A2.42,2.42,0,0,0,290.93,123.16Z"/><path class="cls-1" d="M295.67,113.62h1.88v11.13h-1.88Z"/><path class="cls-1" d="M300.5,124.6A4.76,4.76,0,0,1,299,124l.72-1.42a4.44,4.44,0,0,0,1.3.57,5.17,5.17,0,0,0,1.49.22c1.12,0,1.68-.29,1.68-.88a.59.59,0,0,0-.43-.59,7.33,7.33,0,0,0-1.37-.31,10.87,10.87,0,0,1-1.61-.35,2.46,2.46,0,0,1-1.08-.68,1.9,1.9,0,0,1-.46-1.36,2.13,2.13,0,0,1,.95-1.82,4.3,4.3,0,0,1,2.57-.68,7.72,7.72,0,0,1,1.65.18,4.77,4.77,0,0,1,1.35.51l-.72,1.42a4.42,4.42,0,0,0-2.29-.6,2.46,2.46,0,0,0-1.25.25.72.72,0,0,0-.43.65.66.66,0,0,0,.46.64,7.48,7.48,0,0,0,1.41.35,11,11,0,0,1,1.58.35,2.5,2.5,0,0,1,1.06.66,1.86,1.86,0,0,1,.44,1.32,2.09,2.09,0,0,1-1,1.8,4.58,4.58,0,0,1-2.65.67A7.2,7.2,0,0,1,300.5,124.6Z"/><path class="cls-1" d="M140.7,142.6a4.82,4.82,0,0,1-1.49-.65l.72-1.42a4.44,4.44,0,0,0,1.3.57,5.17,5.17,0,0,0,1.49.22c1.12,0,1.68-.29,1.68-.88a.59.59,0,0,0-.43-.59,7.33,7.33,0,0,0-1.37-.31,10.87,10.87,0,0,1-1.61-.35,2.46,2.46,0,0,1-1.08-.68,1.9,1.9,0,0,1-.46-1.36,2.13,2.13,0,0,1,1-1.82,4.33,4.33,0,0,1,2.58-.68,7.72,7.72,0,0,1,1.65.18,4.77,4.77,0,0,1,1.35.51l-.72,1.42a4.46,4.46,0,0,0-2.3-.6,2.46,2.46,0,0,0-1.25.25.72.72,0,0,0-.43.65.66.66,0,0,0,.46.64,7.63,7.63,0,0,0,1.42.35,10.78,10.78,0,0,1,1.57.35,2.5,2.5,0,0,1,1.06.66,1.86,1.86,0,0,1,.44,1.32,2.08,2.08,0,0,1-1,1.8,4.62,4.62,0,0,1-2.66.67A7.13,7.13,0,0,1,140.7,142.6Z"/><path class="cls-1" d="M148.17,133.09a1.09,1.09,0,0,1,0-1.6,1.17,1.17,0,0,1,.85-.32,1.27,1.27,0,0,1,.86.3,1,1,0,0,1,.34.78,1.12,1.12,0,0,1-.34.83,1.26,1.26,0,0,1-1.71,0Zm-.09,1.65H150v8h-1.87Z"/><path class="cls-1" d="M164.77,135.52a3.59,3.59,0,0,1,.89,2.64v4.59h-1.88V138.4a2.38,2.38,0,0,0-.46-1.59,1.7,1.7,0,0,0-1.34-.53,2,2,0,0,0-1.51.62,2.55,2.55,0,0,0-.57,1.78v4.07H158V138.4a2.38,2.38,0,0,0-.46-1.59,1.7,1.7,0,0,0-1.34-.53,2,2,0,0,0-1.52.62,2.52,2.52,0,0,0-.56,1.78v4.07h-1.88v-8h1.79v1a2.91,2.91,0,0,1,1.12-.83,3.82,3.82,0,0,1,1.5-.28,3.72,3.72,0,0,1,1.6.33,2.65,2.65,0,0,1,1.1,1,3.3,3.3,0,0,1,1.28-1,4,4,0,0,1,1.72-.35A3.27,3.27,0,0,1,164.77,135.52Z"/><path class="cls-1" d="M175.59,134.74v8H173.8v-1a3,3,0,0,1-1.12.83,3.73,3.73,0,0,1-1.46.29,3.52,3.52,0,0,1-2.53-.89,3.55,3.55,0,0,1-.92-2.65v-4.57h1.88v4.32a2.35,2.35,0,0,0,.48,1.61,1.82,1.82,0,0,0,1.39.53,2.13,2.13,0,0,0,1.6-.62,2.52,2.52,0,0,0,.59-1.79v-4Z"/><path class="cls-1" d="M177.9,131.62h1.87v11.13H177.9Z"/><path class="cls-1" d="M187.77,135.49a3.27,3.27,0,0,1,.94,2.56v4.7h-1.77v-1a2.16,2.16,0,0,1-1,.8,3.78,3.78,0,0,1-1.54.28,3.67,3.67,0,0,1-1.57-.31,2.48,2.48,0,0,1-1-.85,2.22,2.22,0,0,1-.36-1.24,2.09,2.09,0,0,1,.8-1.73,4,4,0,0,1,2.53-.65h2.07V138a1.63,1.63,0,0,0-.51-1.29,2.16,2.16,0,0,0-1.49-.45,4.35,4.35,0,0,0-1.33.21,3.29,3.29,0,0,0-1.1.58l-.73-1.36a4.53,4.53,0,0,1,1.51-.74,6.78,6.78,0,0,1,1.88-.25A3.9,3.9,0,0,1,187.77,135.49Zm-1.71,5.67a1.72,1.72,0,0,0,.78-.92v-.93H184.9c-1.08,0-1.62.36-1.62,1.07a1,1,0,0,0,.41.81,1.84,1.84,0,0,0,1.12.3A2.36,2.36,0,0,0,186.06,141.16Z"/><path class="cls-1" d="M195.78,142.31a2.21,2.21,0,0,1-.81.41,3.54,3.54,0,0,1-1,.13,2.83,2.83,0,0,1-2-.69,2.66,2.66,0,0,1-.72-2V136.3H189.9v-1.5h1.32V133h1.87v1.83h2.15v1.5h-2.15v3.81a1.27,1.27,0,0,0,.29.89,1.08,1.08,0,0,0,.82.31,1.65,1.65,0,0,0,1.05-.33Z"/><path class="cls-1" d="M197.34,133.09a1.09,1.09,0,0,1,0-1.6,1.17,1.17,0,0,1,.85-.32,1.27,1.27,0,0,1,.86.3,1,1,0,0,1,.34.78,1.12,1.12,0,0,1-.34.83,1.26,1.26,0,0,1-1.71,0Zm-.09,1.65h1.87v8h-1.87Z"/><path class="cls-1" d="M202.77,142.33a3.86,3.86,0,0,1-1.53-1.47,4.41,4.41,0,0,1,0-4.23,3.91,3.91,0,0,1,1.53-1.46,4.89,4.89,0,0,1,4.39,0,3.82,3.82,0,0,1,1.52,1.46,4.34,4.34,0,0,1,0,4.23,3.77,3.77,0,0,1-1.52,1.47,4.89,4.89,0,0,1-4.39,0Zm3.9-1.77a2.79,2.79,0,0,0,0-3.63,2.46,2.46,0,0,0-3.42,0,2.83,2.83,0,0,0,0,3.63,2.46,2.46,0,0,0,3.42,0Z"/><path class="cls-1" d="M217.86,135.53a3.5,3.5,0,0,1,.91,2.63v4.59H216.9V138.4a2.28,2.28,0,0,0-.5-1.59,1.85,1.85,0,0,0-1.41-.53,2.17,2.17,0,0,0-1.63.62,2.51,2.51,0,0,0-.6,1.8v4.05h-1.88v-8h1.79v1a2.93,2.93,0,0,1,1.17-.84,4.21,4.21,0,0,1,1.59-.28A3.34,3.34,0,0,1,217.86,135.53Z"/><path class="cls-1" d="M231.15,135.16a3.65,3.65,0,0,1,1.45,1.44,4.61,4.61,0,0,1,0,4.29,3.61,3.61,0,0,1-1.45,1.45,4.23,4.23,0,0,1-2.09.51,3.22,3.22,0,0,1-2.56-1.08v3.89h-1.88V134.74h1.79v1a2.92,2.92,0,0,1,1.14-.86,3.9,3.9,0,0,1,1.51-.28A4.23,4.23,0,0,1,231.15,135.16Zm-.6,5.4a2.79,2.79,0,0,0,0-3.63,2.25,2.25,0,0,0-1.7-.69,2.44,2.44,0,0,0-1.21.3,2.27,2.27,0,0,0-.86.88,3,3,0,0,0,0,2.64,2.27,2.27,0,0,0,.86.88,2.45,2.45,0,0,0,1.21.31A2.25,2.25,0,0,0,230.55,140.56Z"/><path class="cls-1" d="M240.27,135.49a3.27,3.27,0,0,1,.94,2.56v4.7h-1.77v-1a2.16,2.16,0,0,1-1,.8,3.78,3.78,0,0,1-1.54.28,3.67,3.67,0,0,1-1.57-.31,2.48,2.48,0,0,1-1-.85,2.22,2.22,0,0,1-.36-1.24,2.09,2.09,0,0,1,.8-1.73,4,4,0,0,1,2.53-.65h2.07V138a1.63,1.63,0,0,0-.51-1.29,2.16,2.16,0,0,0-1.49-.45,4.35,4.35,0,0,0-1.33.21,3.29,3.29,0,0,0-1.1.58l-.73-1.36a4.53,4.53,0,0,1,1.51-.74,6.78,6.78,0,0,1,1.88-.25A3.92,3.92,0,0,1,240.27,135.49Zm-1.71,5.67a1.72,1.72,0,0,0,.78-.92v-.93H237.4c-1.08,0-1.62.36-1.62,1.07a1,1,0,0,0,.41.81,1.84,1.84,0,0,0,1.12.3A2.36,2.36,0,0,0,238.56,141.16Z"/><path class="cls-1" d="M244.75,142.33a3.83,3.83,0,0,1-1.54-1.47,4.27,4.27,0,0,1,0-4.23,3.91,3.91,0,0,1,1.53-1.46,4.73,4.73,0,0,1,2.25-.52,4.28,4.28,0,0,1,2.07.48,3.11,3.11,0,0,1,1.35,1.38l-1.44.84a2.33,2.33,0,0,0-.87-.84,2.39,2.39,0,0,0-1.13-.27,2.35,2.35,0,0,0-1.74.68,2.43,2.43,0,0,0-.69,1.82,2.47,2.47,0,0,0,.68,1.82,2.37,2.37,0,0,0,1.75.69,2.39,2.39,0,0,0,1.13-.28,2.3,2.3,0,0,0,.87-.83l1.44.84a3.23,3.23,0,0,1-1.36,1.38,4.18,4.18,0,0,1-2.06.49A4.71,4.71,0,0,1,244.75,142.33Z"/><path class="cls-1" d="M255.15,139.31l-1.4,1.32v2.12h-1.87V131.62h1.87v6.72l3.89-3.6h2.25l-3.35,3.36,3.66,4.65h-2.28Z"/><path class="cls-1" d="M266.88,135.49a3.27,3.27,0,0,1,.94,2.56v4.7h-1.77v-1a2.16,2.16,0,0,1-1,.8,3.78,3.78,0,0,1-1.54.28,3.74,3.74,0,0,1-1.58-.31,2.51,2.51,0,0,1-1-.85,2.22,2.22,0,0,1-.36-1.24,2.09,2.09,0,0,1,.8-1.73,3.93,3.93,0,0,1,2.53-.65H266V138a1.63,1.63,0,0,0-.51-1.29,2.16,2.16,0,0,0-1.49-.45,4.35,4.35,0,0,0-1.33.21,3.29,3.29,0,0,0-1.1.58l-.73-1.36a4.44,4.44,0,0,1,1.51-.74,6.78,6.78,0,0,1,1.88-.25A3.92,3.92,0,0,1,266.88,135.49Zm-1.71,5.67a1.72,1.72,0,0,0,.78-.92v-.93H264c-1.08,0-1.62.36-1.62,1.07a1,1,0,0,0,.41.81,1.84,1.84,0,0,0,1.12.3A2.36,2.36,0,0,0,265.17,141.16Z"/><path class="cls-1" d="M278,134.74v6.79q0,4.23-4.33,4.23a8.21,8.21,0,0,1-2.19-.29,4.81,4.81,0,0,1-1.71-.85l.84-1.41a4.18,4.18,0,0,0,1.33.7,5.39,5.39,0,0,0,1.63.26,2.67,2.67,0,0,0,1.93-.6,2.41,2.41,0,0,0,.62-1.83v-.42a3.09,3.09,0,0,1-1.17.8,4.13,4.13,0,0,1-1.51.27,4.42,4.42,0,0,1-2.07-.49,3.68,3.68,0,0,1-1.45-1.37,4.07,4.07,0,0,1,0-4.05,3.63,3.63,0,0,1,1.45-1.35,4.42,4.42,0,0,1,2.07-.48,4.27,4.27,0,0,1,1.58.28,2.94,2.94,0,0,1,1.19.87v-1.06Zm-2.53,5.42a2.19,2.19,0,0,0,.68-1.66,2.13,2.13,0,0,0-.68-1.63,2.76,2.76,0,0,0-3.51,0,2.1,2.1,0,0,0-.69,1.63,2.17,2.17,0,0,0,.69,1.66,2.73,2.73,0,0,0,3.51,0Z"/><path class="cls-1" d="M287.83,139.34h-6.29a2.15,2.15,0,0,0,.87,1.4,2.78,2.78,0,0,0,1.73.52,2.91,2.91,0,0,0,2.17-.87l1,1.16a3.39,3.39,0,0,1-1.37,1,5.42,5.42,0,0,1-4.18-.19,3.73,3.73,0,0,1-1.55-1.47,4.06,4.06,0,0,1-.55-2.12,4.26,4.26,0,0,1,.53-2.11,3.84,3.84,0,0,1,1.48-1.46,4.31,4.31,0,0,1,2.13-.52,4.23,4.23,0,0,1,2.09.51,3.61,3.61,0,0,1,1.44,1.46,4.36,4.36,0,0,1,.52,2.17C287.86,138.92,287.85,139.1,287.83,139.34Zm-5.54-2.66a2.21,2.21,0,0,0-.76,1.42h4.54a2.2,2.2,0,0,0-.73-1.41,2.44,2.44,0,0,0-3,0Z"/><path class="cls-1" d="M160.43,80.23q3.44,3,3.44,9.1V104.9h-7.49v-3.4q-2.25,3.8-8.41,3.8a13.21,13.21,0,0,1-5.51-1.06,8.29,8.29,0,0,1-3.56-2.94A7.62,7.62,0,0,1,137.67,97a7.06,7.06,0,0,1,2.89-6c1.93-1.46,4.92-2.18,8.95-2.18h6.36a5,5,0,0,0-1.59-4,7.06,7.06,0,0,0-4.77-1.4,14,14,0,0,0-4.33.69A11.32,11.32,0,0,0,141.56,86l-2.87-5.53a17.82,17.82,0,0,1,5.41-2.43,24.35,24.35,0,0,1,6.49-.86Q157,77.22,160.43,80.23ZM153.61,99a5.13,5.13,0,0,0,2.26-2.76V93.49h-5.49c-3.28,0-4.92,1.07-4.92,3.19a2.82,2.82,0,0,0,1.21,2.41,5.46,5.46,0,0,0,3.3.89A7,7,0,0,0,153.61,99Z"/><path class="cls-1" d="M171.1,78.29h8V104.9h-8Z"/><path class="cls-1" d="M230.08,80.23q3.06,3,3.06,9V104.9h-8V90.5a7.36,7.36,0,0,0-1.36-4.84,4.8,4.8,0,0,0-3.87-1.6,5.73,5.73,0,0,0-4.46,1.8,7.67,7.67,0,0,0-1.64,5.35V104.9h-8V90.5c0-4.29-1.75-6.44-5.23-6.44a5.66,5.66,0,0,0-4.41,1.8,7.71,7.71,0,0,0-1.64,5.35V104.9h-8V78.29h7.64v2.47a10.22,10.22,0,0,1,3.77-2.63,12.78,12.78,0,0,1,4.89-.91,12,12,0,0,1,5.29,1.14,9.36,9.36,0,0,1,3.79,3.32,11.39,11.39,0,0,1,4.28-3.3,13.79,13.79,0,0,1,5.67-1.16A11.17,11.17,0,0,1,230.08,80.23Z"/><path class="cls-1" d="M242.88,104.47a17.46,17.46,0,0,1-5.23-2.11l2.66-5.68a16.5,16.5,0,0,0,4.46,1.9,18.93,18.93,0,0,0,5.13.74q5.08,0,5.08-2.48a1.77,1.77,0,0,0-1.39-1.68,20.77,20.77,0,0,0-4.25-.86,43.31,43.31,0,0,1-5.59-1.16,8.68,8.68,0,0,1-3.82-2.34A6.55,6.55,0,0,1,238.31,86a7.46,7.46,0,0,1,1.51-4.59,9.87,9.87,0,0,1,4.42-3.12,19.08,19.08,0,0,1,6.84-1.11,27.29,27.29,0,0,1,5.82.63,16.35,16.35,0,0,1,4.79,1.75L259,85.23a16.1,16.1,0,0,0-7.95-2,8.11,8.11,0,0,0-3.85.71A2.09,2.09,0,0,0,246,85.74a1.81,1.81,0,0,0,1.39,1.77,25,25,0,0,0,4.41,1,47.69,47.69,0,0,1,5.53,1.19A8.37,8.37,0,0,1,261,92a6.49,6.49,0,0,1,1.59,4.66,7.18,7.18,0,0,1-1.54,4.51,9.85,9.85,0,0,1-4.49,3.07,20.08,20.08,0,0,1-7,1.09A27.37,27.37,0,0,1,242.88,104.47Z"/><path class="cls-1" d="M59.5,83.63v6h12v5.95h-12v9.33H51.8V77.68H73.15v5.95Z"/><path class="cls-1" d="M103.49,77.68V104.9h-7.7V94.29H85.29V104.9h-7.7V77.68h7.7V87.91h10.5V77.68Z"/><path class="cls-1" d="M109.71,77.68h7.7V104.9h-7.7Z"/><path class="cls-1" d="M122.19,90.23h11.35v5.18H122.19Z"/><circle class="cls-2" cx="175.1" cy="32.19" r="5.26"/><circle class="cls-2" cx="175.1" cy="64.87" r="5.26"/><circle class="cls-2" cx="158.8" cy="36.55" r="5.26"/><circle class="cls-2" cx="146.87" cy="48.48" r="5.26"/><circle class="cls-2" cx="142.5" cy="64.78" r="5.26"/><circle class="cls-2" cx="207.69" cy="64.78" r="5.26"/><circle class="cls-2" cx="203.32" cy="48.48" r="5.26"/><circle class="cls-2" cx="191.39" cy="36.55" r="5.26"/><circle class="cls-2" cx="169.47" cy="43.79" r="3.51"/><circle class="cls-2" cx="175.1" cy="52.02" r="2.34"/><circle class="cls-2" cx="168.71" cy="53.73" r="2.34"/><circle class="cls-2" cx="164.04" cy="58.4" r="2.34"/><circle class="cls-2" cx="186.15" cy="71.16" r="2.34"/><circle class="cls-2" cx="162.33" cy="64.78" r="2.34"/><circle class="cls-2" cx="187.86" cy="64.78" r="2.34"/><circle class="cls-2" cx="164.04" cy="71.16" r="2.34"/><circle class="cls-2" cx="186.15" cy="58.4" r="2.34"/><circle class="cls-2" cx="181.48" cy="53.73" r="2.34"/><circle class="cls-2" cx="159.73" cy="49.42" r="3.51"/><circle class="cls-2" cx="154.11" cy="59.16" r="3.51"/><circle class="cls-3" cx="196.08" cy="70.21" r="3.51"/><circle class="cls-3" cx="154.11" cy="70.21" r="3.51"/><circle class="cls-2" cx="196.08" cy="59.16" r="3.51"/><circle class="cls-2" cx="190.46" cy="49.42" r="3.51"/><circle class="cls-2" cx="180.72" cy="43.79" r="3.51"/></svg>